<?xml version="1.0" ?><svg height="72px" version="1.1" viewBox="0 0 100 72" width="100px" xmlns="http://www.w3.org/2000/svg" xmlns:xlink="http://www.w3.org/1999/xlink"><title/><desc/><defs><rect height="71.4285714" id="path-1" rx="6.63157895" width="100" x="0" y="0"/></defs><g fill="none" fill-rule="evenodd" id="Content" stroke="none" stroke-width="1"><g id="Indonesian-Bank-Icons" transform="translate(-690.000000, -623.000000)"><g id="BNI" transform="translate(690.000000, 623.000000)"><mask fill="white" id="mask-2"><use xlink:href="#path-1"/></mask><use fill="#FFFFFF" id="Background" xlink:href="#path-1"/><g id="Logo-Bank-BNI" mask="url(#mask-2)"><g transform="translate(8.571429, 24.285714)"><path d="M7.64567209,18.129353 L11.0393948,22.3319602 L2.63714862,22.3319602 L7.64567209,18.129353 Z M6.57848065,16.8311823 L0.00582104422,22.3447975 L0.00312611634,8.78460968 L6.57848065,16.8311823 Z M22.3928564,3.17685437 C22.3928564,3.17685437 20.949992,2.49380367 19.2737469,2.59356009 C17.3573837,2.70642125 15.7541711,3.44135599 14.8325057,4.41110612 C14.2525573,5.02034241 13.6114339,5.7635679 13.28939,6.57071239 C12.822359,7.73837071 12.7226467,9.28125226 12.7226467,9.28125226 C12.7226467,9.28125226 12.0524182,8.71239994 11.2126786,7.05478512 C10.2363063,5.12678493 9.9692389,3.95885916 9.83691794,2.62645564 C9.71914959,1.45719266 9.90402165,0.301034404 9.90402165,0.301034404 L22.3928564,0.301034404 L22.3928564,3.17685437 Z M22.3928564,7.02108724 L22.3928564,15.571256 C22.3928564,15.571256 21.6164477,15.8694555 20.9831396,15.8694555 C20.3498316,15.8694555 19.2713215,15.7755828 18.018719,15.0869158 C16.7752793,14.4038651 16.0869947,13.5774647 15.553399,12.8286229 C15.0122574,12.0669438 14.5654384,11.0110768 14.4325785,10.2502001 C14.3258593,9.64149866 14.2107859,8.12322191 14.8325057,6.8892376 C15.1699107,6.21955907 16.0754065,5.07169157 17.8187553,5.00643535 C19.2397908,4.95187688 20.0277877,5.32549545 20.7500284,5.72184672 C22.1244416,6.47764205 22.3928564,7.02108724 22.3928564,7.02108724 L22.3928564,7.02108724 Z M8.79398085,14.9708453 L11.0466711,13.0931245 C10.3287423,12.1760607 10.1390194,11.8305237 9.33646984,10.6465513 C8.51478633,9.43476483 7.82650175,8.10155898 7.2379295,6.53728195 C6.60084855,4.84275993 6.44696817,3.8914634 6.51730578,2.62645564 C6.60542992,1.01698066 6.97140113,0.301034404 6.97140113,0.301034404 L-0.000107797115,0.301034404 L0.00312611634,4.05834814 C0.00312611634,4.05834814 5.3396223,10.7460403 8.79398085,14.9708453 L8.79398085,14.9708453 Z M15.2305466,22.325809 L22.3928564,22.325809 L22.3928564,17.1034398 C22.3928564,17.1034398 20.61636,17.9183401 19.4615834,17.9841312 C18.7741073,18.0242477 18.1068431,18.0507246 17.0302194,17.7642927 C15.833402,17.4463023 15.1534717,17.1363353 14.0442393,16.2214111 C13.1532962,15.4875461 12.1346135,14.4038651 12.1346135,14.4038651 L9.86871809,16.293086 C10.9200095,17.5789543 11.6964182,18.5150066 11.9341108,18.7669383 C12.9560275,19.8468752 13.3891024,20.2437614 14.077387,20.6286125 C14.765402,21.0142661 17.0641755,20.9934055 17.0641755,20.9934055 L15.2305466,22.325809 Z" fill="#E94E0F" id="46"/><path d="M76.561338,17.6803956 C76.561338,19.193591 76.765344,21.6808155 75.0707733,22.2863076 L75.0707733,22.3871338 L81.5068001,22.3871338 L81.5068001,22.2863076 C79.8133074,21.6476525 80.016505,19.193591 80.016505,17.6803956 L80.016505,5.00705047 C80.016505,3.49465748 79.8133074,1.00689804 81.5068001,0.368242956 L81.5068001,0.267416756 L75.0707733,0.267416756 L75.0707733,0.368242956 C76.7984916,1.00689804 76.561338,3.4609596 76.561338,5.00705047 L76.561338,17.6803956 Z M52.961585,5.00705047 L64.5807666,19.6305936 C66.0707922,21.5462914 67.1215446,22.656182 69.5264982,23.4625241 L69.5264982,4.60374567 C69.5264982,2.72147832 69.5264982,1.37650495 71.2884421,0.368242956 L71.2884421,0.267416756 L65.3259141,0.267416756 L65.3259141,0.368242956 C67.1215446,1.37650495 67.0870495,2.72147832 67.0870495,4.60374567 L67.0870495,17.3444866 L54.6895728,1.81350763 L54.2147265,1.14115467 C53.9781118,0.872373954 53.8428264,0.704419436 53.7072716,0.301114637 L53.7072716,0.267416756 L48.7607315,0.267416756 L48.7607315,0.368242956 C50.5224058,1.37650495 50.5224058,2.72147832 50.5224058,4.60374567 L50.5224058,18.0173744 C50.5224058,19.8993744 50.5224058,21.2438128 48.7275838,22.2863076 L48.7275838,22.3871338 L54.7235289,22.3871338 L54.7235289,22.2863076 C52.9278984,21.2438128 52.961585,19.8993744 52.961585,18.0173744 L52.961585,5.00705047 Z M34.0219014,9.17595976 L34.0219014,2.58722168 L36.2910307,2.35133651 C38.3238148,2.14968411 40.4913453,3.3601334 40.4913453,5.67993832 C40.4913453,8.43647848 37.3409746,9.17595976 35.1397575,9.17595976 L34.0219014,9.17595976 Z M34.0219014,19.697722 L34.0219014,11.3941362 L36.3926295,11.2598795 C39.3737587,11.0916576 42.557816,12.5040267 42.557816,15.7646978 C42.557816,18.9582407 39.7470062,20.2355508 36.9685355,19.9667701 L34.0219014,19.697722 Z M30.5661954,17.6469652 C30.5661954,19.193591 30.7696624,21.6476525 29.0753613,22.2863076 L29.0753613,22.3871338 L34.6649112,22.3871338 C37.2054197,22.3871338 39.8822916,22.4882274 42.2530196,21.3451739 C44.5226879,20.2692487 46.3183183,18.05027 46.3183183,15.4616844 C46.3183183,12.1678502 43.8449135,10.1505239 40.7961416,9.51133391 C42.7273269,8.67129387 44.1833965,7.39398371 44.1833965,5.14157455 C44.1833965,2.14968411 41.5757842,0.267416756 37.1046294,0.267416756 L29.0753613,0.267416756 L29.0753613,0.368242956 C30.803888,1.00689804 30.5661954,3.4609596 30.5661954,4.97335259 L30.5661954,17.6469652 Z" fill="#005B6A" id="BNI"/></g></g></g></g></g></svg>