<?xml version="1.0" ?><svg height="72px" version="1.1" viewBox="0 0 100 72" width="100px" xmlns="http://www.w3.org/2000/svg" xmlns:xlink="http://www.w3.org/1999/xlink"><title/><desc/><defs><rect height="71.4285714" id="path-1" rx="6.63157895" width="100" x="0" y="0"/><linearGradient id="linearGradient-3" x1="0%" x2="100%" y1="0%" y2="0%"><stop offset="0%" stop-color="#FF730A"/><stop offset="18.8325148%" stop-color="#F66F0A"/><stop offset="100%" stop-color="#FF7A18"/></linearGradient><polygon id="path-4" points="0 21.0082979 88.4430904 21.0082979 88.4430904 9.11854103e-05 0 9.11854103e-05"/></defs><g fill="none" fill-rule="evenodd" id="Content" stroke="none" stroke-width="1"><g id="Indonesian-Bank-Icons" transform="translate(-530.000000, -623.000000)"><g id="BRI" transform="translate(530.000000, 623.000000)"><mask fill="white" id="mask-2"><use xlink:href="#path-1"/></mask><use fill="#00529C" id="Background" xlink:href="#path-1"/><path d="M1.8562929e-13,62.5063301 C1.8562929e-13,62.5063301 -1.05027385,65 16.4285714,65 C55.7142857,65 100.002551,50.7142857 100.002551,50.7142857 L100.002551,74.2983744 L-0.716729558,74.2983744 L1.8562929e-13,62.5063301 Z" fill="#FFFFFF" id="White" mask="url(#mask-2)"/><path d="M4.26325641e-14,62.8571429 C4.26325641e-14,62.8571429 -19.0122689,66.4955177 -1.63424829e-13,67.1428571 C42.1428571,68.5777586 100.002551,61.4285714 100.002551,61.4285714 L100.002551,77.1555173 L-0.716729558,77.1555173 L4.26325641e-14,62.8571429 Z" fill="url(#linearGradient-3)" id="Orange" mask="url(#mask-2)"/><g id="Logo-Bank-BRI" mask="url(#mask-2)"><g transform="translate(5.714286, 25.714286)"><path d="M23.9303732,5.27279635 L28.6965102,5.27279635 C30.6265539,5.27279635 32.0653878,6.12674772 32.0653878,7.92446809 C32.0653878,9.24255319 31.3983907,9.97659574 30.2397318,10.3655015 L30.2397318,10.3951368 C31.620723,10.6805471 32.3333615,11.4296353 32.3333615,12.7021277 C32.3333615,15.2042553 30.1502566,15.7281155 28.2947755,15.7281155 L23.9303732,15.7281155 L23.9303732,5.27279635 Z M26.691,9.40714286 L27.4637405,9.40714286 C28.3693382,9.40714286 29.3052128,9.18237082 29.3052128,8.29787234 C29.3052128,7.34042553 28.4140758,7.24969605 27.4926618,7.24969605 L26.691,7.24969605 L26.691,9.40714286 Z M26.691,13.7512158 L27.50893,13.7512158 C28.5175598,13.7512158 29.571379,13.6012158 29.571379,12.537538 C29.571379,11.4 28.4881866,11.2942249 27.5378513,11.2942249 L26.691,11.2942249 L26.691,13.7512158 Z" fill="#FFFFFF" fill-rule="evenodd" id="Fill-1" stroke="none"/><path d="M35.9576501,5.27279635 L39.3427959,5.27279635 L43.3366443,15.7281155 L40.3075918,15.7281155 L39.536207,13.4968085 L35.6462945,13.4968085 L34.8292682,15.7281155 L32.0234519,15.7281155 L35.9576501,5.27279635 Z M37.6509009,7.43024316 L37.6197201,7.43024316 L36.2843703,11.5199088 L38.8823149,11.5199088 L37.6509009,7.43024316 Z" fill="#FFFFFF" fill-rule="evenodd" id="Fill-3" stroke="none"/><polygon fill="#FFFFFF" fill-rule="evenodd" id="Fill-5" points="43.7210714 5.27279635 47.2395262 5.27279635 50.7435204 12.3734043 50.7724417 12.3734043 50.7286079 5.27279635 53.2533455 5.27279635 53.2533455 15.7281155 49.8234621 15.7281155 46.1997157 8.58328267 46.1712464 8.58328267 46.2598178 15.7281155 43.7210714 15.7281155" stroke="none"/><polygon fill="#FFFFFF" fill-rule="evenodd" id="Fill-7" points="54.1905758 5.27279635 56.9516545 5.27279635 56.9516545 9.54300912 56.9814796 9.54300912 60.0981997 5.27279635 63.425051 5.27279635 59.5938848 10.1407295 63.7219461 15.7281155 60.2021356 15.7281155 56.9814796 10.9800912 56.9516545 10.9800912 56.9516545 15.7281155 54.1905758 15.7281155" stroke="none"/><path d="M67.1455029,5.27279635 L71.9116399,5.27279635 C73.8412318,5.27279635 75.2818732,6.12674772 75.2818732,7.92446809 C75.2818732,9.24255319 74.6148761,9.97659574 73.4562172,10.3655015 L73.4562172,10.3951368 C74.8367566,10.6805471 75.549395,11.4296353 75.549395,12.7021277 C75.549395,15.2042553 73.366742,15.7281155 71.5117128,15.7281155 L67.1455029,15.7281155 L67.1455029,5.27279635 Z M69.9074854,9.40714286 L70.6788703,9.40714286 C71.5849198,9.40714286 72.5194388,9.18237082 72.5194388,8.29787234 C72.5194388,7.34042553 71.6296574,7.24969605 70.7095991,7.24969605 L69.9074854,7.24969605 L69.9074854,9.40714286 Z M69.9074854,13.7512158 L70.7245117,13.7512158 C71.7331414,13.7512158 72.7878644,13.6012158 72.7878644,12.537538 C72.7878644,11.4 71.7042201,11.2942249 70.7538848,11.2942249 L69.9074854,11.2942249 L69.9074854,13.7512158 Z" fill="#FFFFFF" fill-rule="evenodd" id="Fill-9" stroke="none"/><path d="M76.1613061,5.27279635 L81.0905773,5.27279635 C82.9311458,5.27279635 84.4314373,6.1112462 84.4314373,7.90987842 C84.4314373,9.30273556 83.7779971,10.231459 82.4421953,10.5455927 L82.4421953,10.575228 C83.3310729,10.8155015 83.3916268,11.6088146 83.9113061,12.8822188 L84.9212915,15.7281155 L82.0413644,15.7281155 L81.4471224,13.8419453 C80.8827055,12.0442249 80.5261603,11.593769 79.5017143,11.593769 L78.9223848,11.593769 L78.9223848,15.7281155 L76.1613061,15.7281155 L76.1613061,5.27279635 Z M78.9223848,9.6168693 L79.6503878,9.6168693 C80.5410729,9.6168693 81.6699067,9.58632219 81.6699067,8.40319149 C81.6699067,7.43024316 80.7037551,7.24969605 79.6503878,7.24969605 L78.9223848,7.24969605 L78.9223848,9.6168693 Z" fill="#FFFFFF" fill-rule="evenodd" id="Fill-11" stroke="none"/><mask fill="white" id="mask-5"><use xlink:href="#path-4"/></mask><g fill="none" id="Clip-14" stroke="none"/><polygon fill="#FFFFFF" fill-rule="evenodd" id="Fill-13" mask="url(#mask-5)" points="85.6820117 15.7282067 88.4430904 15.7282067 88.4430904 5.27288754 85.6820117 5.27288754" stroke="none"/><path d="M17.6287872,0 L3.17627988,0 C1.42202332,0 -9.03790088e-05,1.47036474 -9.03790088e-05,3.28449848 L-9.03790088e-05,3.31914894 L-9.03790088e-05,17.7246201 C-9.03790088e-05,19.5209726 1.39581341,20.981307 3.12747522,21.0082067 L17.621105,21.0082067 C19.3758134,21.0082067 20.798379,19.5378419 20.798379,17.7246201 L20.8051574,3.28449848 C20.8051574,1.47036474 19.3834956,0 17.6287872,0 L17.6287872,0 Z M4.89438484,19.324924 L4.10582799,19.3335866 C3.15142566,19.3335866 2.37778134,18.5425532 2.37778134,17.5664134 L2.37326239,17.4273556 L2.37326239,4.09148936 L2.37823324,3.37340426 C2.41393294,2.4287234 3.12521574,1.66823708 4.05702332,1.66823708 L5.65989504,1.66823708 C7.11228571,1.66823708 8.29037609,2.94255319 8.29037609,4.44620061 C8.29037609,5.1893617 8.00161516,5.86413374 7.53390379,6.35471125 L3.44425364,10.5414894 L7.27722741,14.4793313 C7.77160058,14.9931611 8.07030321,15.668845 8.07030321,16.4088146 C8.07030321,18.0196049 6.6481895,19.324924 4.89438484,19.324924 L4.89438484,19.324924 Z M16.678,19.3117021 L9.53173178,19.3085106 C9.53173178,19.3085106 10.3582478,17.5066869 10.3582478,16.3914894 C10.3582478,15.0319149 9.90725656,13.8168693 9.2018484,13.0130699 L6.7575481,10.4990881 L9.25246064,7.89848024 C9.9949242,7.19407295 10.4883936,5.94392097 10.4883936,4.52006079 C10.4883936,3.39255319 10.1792974,2.39361702 9.68176093,1.66823708 L11.4134227,1.66823708 C12.8662653,1.66823708 14.0443557,2.94255319 14.0443557,4.44620061 C14.0443557,5.1893617 13.7560466,5.86413374 13.2883353,6.35471125 L9.27686297,10.4977204 L17.6084519,19.0696049 C17.3445452,19.237386 17.0114985,19.3117021 16.678,19.3117021 L16.678,19.3117021 Z M18.4232187,16.6354103 L12.4523294,10.4958967 L15.296105,7.57978723 C15.8754344,6.84984802 16.2423732,5.74969605 16.2423732,4.52006079 C16.2423732,3.38525836 15.928758,2.36215805 15.4267026,1.63632219 L16.699691,1.67462006 C17.6540933,1.67462006 18.4277376,2.46702128 18.4277376,3.44270517 L18.4232187,16.6354103 Z" fill="#FFFFFF" fill-rule="evenodd" id="Fill-15" mask="url(#mask-5)" stroke="none"/></g></g></g></g></g></svg>