<?xml version="1.0" ?><svg height="72px" version="1.1" viewBox="0 0 100 72" width="100px" xmlns="http://www.w3.org/2000/svg" xmlns:xlink="http://www.w3.org/1999/xlink"><title/><desc/><defs><rect height="71.4285714" id="path-1" rx="6.63157895" width="100" x="0" y="0"/><linearGradient id="linearGradient-3" x1="0%" x2="100%" y1="50%" y2="50%"><stop offset="0%" stop-color="#FFCA06"/><stop offset="33.0844276%" stop-color="#FBAA18"/><stop offset="69.4742244%" stop-color="#FFC907"/><stop offset="100%" stop-color="#FAA619"/></linearGradient></defs><g fill="none" fill-rule="evenodd" id="Content" stroke="none" stroke-width="1"><g id="Indonesian-Bank-Icons" transform="translate(-370.000000, -623.000000)"><g id="Mandiri" transform="translate(370.000000, 623.000000)"><mask fill="white" id="mask-2"><use xlink:href="#path-1"/></mask><use fill="#003D79" id="Background" xlink:href="#path-1"/><g mask="url(#mask-2)"><g transform="translate(7.142857, 20.000000)"><g fill="none" id="Logo-Mandiri" stroke-width="1" transform="translate(0.000000, 9.810235)"><path d="M0.0903157895,8.01980736 C0.0903157895,6.73883387 0.0677593985,5.66382265 9.02255639e-05,4.70530593 L2.3477594,4.70530593 L2.45783459,6.35207214 L2.52369925,6.35207214 C3.05580451,5.48185825 4.02888722,4.45274586 5.844,4.45274586 C7.26076692,4.45274586 8.36738346,5.27775989 8.83136842,6.51190259 L8.87693233,6.51190259 C9.25384962,5.89471475 9.69505263,5.43782333 10.2036992,5.1165315 C10.8018947,4.682706 11.4882857,4.45274586 12.3736241,4.45274586 C14.1659549,4.45274586 15.9797143,5.70995447 15.9797143,9.27701597 L15.9797143,15.8377531 L13.3241504,15.8377531 L13.3241504,9.6891735 C13.3241504,7.83760997 12.7054286,6.73883387 11.4003158,6.73883387 C10.469188,6.73883387 9.78234586,7.42591841 9.49655639,8.2264686 C9.42933835,8.49999768 9.36302256,8.84319046 9.36302256,9.16098745 L9.36302256,15.8377531 L6.70655639,15.8377531 L6.70655639,9.39094759 C6.70655639,7.83760997 6.10993985,6.73883387 4.84813534,6.73883387 C3.82993985,6.73883387 3.14467669,7.56314893 2.90061654,8.33876929 C2.78918797,8.61486125 2.74452632,8.93405617 2.74452632,9.25348408 L2.74452632,15.8377531 L0.0903157895,15.8377531 L0.0903157895,8.01980736 Z" fill="#FFFFFF" id="Fill-1"/><path d="M26.3263083,13.1637617 C26.3263083,14.1691092 26.3705188,15.1504588 26.4812707,15.8382423 L24.0237519,15.8382423 L23.8473609,14.6040996 L23.7801429,14.6040996 C23.1165338,15.4736146 21.987812,16.0898704 20.5936015,16.0898704 C18.4241278,16.0898704 17.2074361,14.4680341 17.2074361,12.775369 C17.2074361,9.96249289 19.6189398,8.54638579 23.6030752,8.56898572 L23.6030752,8.38539039 C23.6030752,7.65357196 23.3150301,6.44272816 21.4119474,6.44272816 C20.3490902,6.44272816 19.2420226,6.78592095 18.5120977,7.26517931 L17.980218,5.43784663 C18.7784887,4.93389143 20.1740526,4.45323514 21.8768346,4.45323514 C25.3308947,4.45323514 26.3263083,6.71788816 26.3263083,9.14004174 L26.3263083,13.1637617 Z M23.669391,10.3979493 C21.744203,10.3518175 19.9076617,10.786109 19.9076617,12.4780751 C19.9076617,13.5742883 20.5936015,14.0782435 21.4570602,14.0782435 C22.540218,14.0782435 23.3382632,13.346425 23.5809699,12.5465738 C23.6468346,12.3408445 23.669391,12.1113504 23.669391,11.929153 L23.669391,10.3979493 Z" fill="#FFFFFF" id="Fill-3"/><path d="M28.2083684,8.01980736 C28.2083684,6.73883387 28.1840075,5.66382265 28.1194962,4.70530593 L30.5077669,4.70530593 L30.6413008,6.37397311 L30.7067143,6.37397311 C31.1720526,5.50632209 32.344985,4.45274586 34.1373158,4.45274586 C36.0191955,4.45274586 37.9667143,5.70995447 37.9667143,9.23135013 L37.9667143,15.8377531 L35.2448346,15.8377531 L35.2448346,9.55217597 C35.2448346,7.95084262 34.6694211,6.73883387 33.1863383,6.73883387 C32.1018271,6.73883387 31.3495714,7.53915107 31.0610752,8.38536709 C30.9740075,8.63746118 30.951,8.98111995 30.951,9.29891694 L30.951,15.8377531 L28.2083684,15.8377531 L28.2083684,8.01980736 Z" fill="#FFFFFF" id="Fill-5"/><path d="M49.7692105,0.232196831 L49.7692105,12.7052626 C49.7692105,13.8480736 49.8127444,15.0847792 49.8571805,15.8382656 L47.4224436,15.8382656 L47.3134962,14.0782668 L47.2683835,14.0782668 C46.626203,15.3133414 45.3183835,16.0898937 43.7486842,16.0898937 C41.1824436,16.0898937 39.1456015,13.8271046 39.1456015,10.3979726 C39.1230451,6.67131366 41.3804887,4.45325844 43.9697368,4.45325844 C45.4521429,4.45325844 46.5154511,5.09421116 47.0015414,5.91782725 L47.0464286,5.91782725 L47.0464286,0.232196831 L49.7692105,0.232196831 Z M47.0464286,9.34462938 C47.0464286,9.11839706 47.0236466,8.84277108 46.981015,8.61490785 C46.7371805,7.51752969 45.8734962,6.62541483 44.6340226,6.62541483 C42.8856767,6.62541483 41.9116917,8.2265152 41.9116917,10.3068739 C41.9116917,12.3408678 42.8856767,13.8271046 44.6119173,13.8271046 C45.7180827,13.8271046 46.6925188,13.0500863 46.957782,11.8387766 C47.0236466,11.5862165 47.0464286,11.3122214 47.0464286,11.0139955 L47.0464286,9.34462938 Z" fill="#FFFFFF" id="Fill-7"/><polygon fill="#FFFFFF" id="Fill-9" points="51.6927068 15.8376599 54.4398496 15.8376599 54.4398496 4.7059117 51.6927068 4.7059117"/><path d="M56.3636617,8.29398881 C56.3636617,6.78585105 56.3406541,5.70990788 56.2745639,4.70502634 L58.6432105,4.70502634 L58.7298271,6.83035195 L58.8216316,6.83035195 C59.3519323,5.25301646 60.6137368,4.70502634 61.7641128,4.70502634 C62.0291504,4.70502634 62.1838872,4.65819556 62.4058421,4.70502634 L62.4058421,7.17470968 C62.1838872,7.12904384 61.9409549,7.08337799 61.6089248,7.08337799 C60.3033609,7.08337799 59.4173459,7.951262 59.174188,9.20777164 C59.1311053,9.45939976 59.0864436,9.75785866 59.0864436,10.0793835 L59.0864436,15.8381724 L56.3636617,15.8381724 L56.3636617,8.29398881 Z" fill="#FFFFFF" id="Fill-11"/><polygon fill="#FFFFFF" id="Fill-12" points="63.6674436 15.8376599 66.4105263 15.8376599 66.4105263 4.7059117 63.6674436 4.7059117"/></g><path d="M63.0184962,1.05660509 C61.3707519,2.04214853 57.4842857,4.34454577 56.0334586,5.20194527 L56.0334586,5.20194527 C55.1492481,5.66722429 53.1013534,5.87039069 51.9430827,4.2571749 L51.9430827,4.2571749 C51.9223308,4.22805128 50.4024812,2.26651693 50.3404511,2.19265942 L50.3404511,2.19265942 C50.2969173,2.14046989 49.3143609,0.635127998 47.1250376,0.588064221 L47.1250376,0.588064221 C46.8015789,0.580142595 45.1933083,0.571289013 43.6240602,1.4925275 L43.6240602,1.4925275 C41.5382707,2.72340835 36.6872932,5.58800803 36.6872932,5.58800803 L36.6872932,5.58800803 C36.6859398,5.58800803 36.6859398,5.59057091 36.6834586,5.59057091 L36.6834586,5.59057091 C34.6894737,6.76902924 33.1357895,7.6865399 33.1357895,7.6865399 L33.1357895,7.6865399 L34.9714286,10.0152649 C35.8301504,11.1166039 37.7666165,11.9686446 39.4459398,10.9728497 L39.4459398,10.9728497 C39.4459398,10.9728497 45.6509774,7.26133499 45.6737594,7.25061749 L45.6737594,7.25061749 C48.3572932,5.73036431 50.4279699,5.73036431 51.8023308,6.29606159 L51.8023308,6.29606159 C53.0359398,6.83449915 54.1091729,8.17604978 54.1091729,8.17604978 L54.1091729,8.17604978 C54.1091729,8.17604978 55.5117293,9.97146297 55.7591729,10.2855321 L55.7591729,10.2855321 C56.557218,11.3001992 57.8781203,10.901555 57.8781203,10.901555 L57.8781203,10.901555 C57.8781203,10.901555 58.367594,10.8442397 59.1054135,10.3917751 L59.1054135,10.3917751 C59.1054135,10.3917751 65.1157895,6.79209515 65.1196241,6.79093021 L65.1196241,6.79093021 C67.0281203,5.63437284 68.7784962,5.41839205 69.6730827,5.50343303 L69.6730827,5.50343303 C72.4750376,5.7664776 73.3454887,7.78835609 74.5603759,9.19887146 L74.5603759,9.19887146 C75.2758647,10.0285453 75.9214286,10.499649 76.9087218,10.4758841 L76.9087218,10.4758841 C77.5574436,10.4616718 78.2903008,10.055339 78.3983459,9.98194747 L78.3983459,9.98194747 L85.5956391,5.69168814 C85.5956391,5.69168814 84.8571429,4.54281941 83.3447368,2.75532784 L83.3447368,2.75532784 C81.9911278,1.16051818 80.5533835,1.88208509 79.4070677,2.46851839 L79.4070677,2.46851839 C78.9254887,2.71455477 77.1805263,3.91351613 75.4518045,4.74994662 L75.4518045,4.74994662 C74.22,5.34569948 72.4506767,5.16653094 71.4809774,3.92889341 L71.4809774,3.92889341 C71.4230075,3.85363796 69.8542105,1.89187063 69.6893233,1.65049403 L69.6893233,1.65049403 C69.0561654,0.831304731 67.8207519,0.0976223885 66.2375188,0.0976223885 L66.2375188,0.0976223885 C65.274812,0.0976223885 64.182406,0.368821578 63.0184962,1.05660509" fill="url(#linearGradient-3)" id="Flag"/></g></g></g></g></g></svg>