<?xml version="1.0" encoding="iso-8859-1"?>
<!-- Generator: Adobe Illustrator 19.0.0, SVG Export Plug-In . SVG Version: 6.00 Build 0)  -->
<svg version="1.1" id="Layer_1" xmlns="http://www.w3.org/2000/svg" xmlns:xlink="http://www.w3.org/1999/xlink" x="0px" y="0px"
	 viewBox="0 0 486 486" style="enable-background:new 0 0 486 486;" xml:space="preserve">
<path style="fill:#F15249;" d="M345,302.2L456.2,191c39.2-39.2,39.2-103.2,0-142.4L437,29.4c-39.2-39.2-103.2-39.2-142.4,0
	l-110.4,112L345,302.2z"/>
<path style="fill:#3AC2F2;" d="M141,183.8L29.8,295c-39.2,39.2-39.2,103.2,0,142.4L49,456.6c39.2,39.2,103.2,39.2,142.4,0
	l111.2-111.2L141,183.8z"/>
<path style="fill:#C93131;" d="M275.4,232.6l69.6,69.6L456.2,191c39.2-39.2,39.2-103.2,0-142.4"/>
<path style="fill:#009CC6;" d="M49,456.6c39.2,39.2,103.2,39.2,142.4,0l111.2-111.2l-71.2-71.2"/>
<g>
</g>
<g>
</g>
<g>
</g>
<g>
</g>
<g>
</g>
<g>
</g>
<g>
</g>
<g>
</g>
<g>
</g>
<g>
</g>
<g>
</g>
<g>
</g>
<g>
</g>
<g>
</g>
<g>
</g>
</svg>
