<svg id="Capa_1" enable-background="new 0 0 497 497" height="512" viewBox="0 0 497 497" width="512" xmlns="http://www.w3.org/2000/svg"><g><path d="m196 45h135v90h-135z" fill="#49f5e8"/><path d="m166 45h135v90h-135z" fill="#9bfef7"/><path d="m331 497h-165c-33.137 0-60-26.863-60-60v-75l60-83.5-60-83.5v-30c0-33.137 26.863-60 60-60h165c33.137 0 60 26.863 60 60v30l-60 83.5 60 83.5v75c0 33.137-26.863 60-60 60z" fill="#dbfffc"/><path d="m331 135h-165c-16.542 0-30 13.458-30 30v272c0 16.542 13.458 30 30 30h165c16.542 0 30-13.458 30-30v-272c0-16.542-13.458-30-30-30z" fill="#9bfef7"/><path d="m361 195-45 83.5 45 83.5h30v-167z" fill="#ffc40f"/><path d="m106 195h255v167h-255z" fill="#ffd959"/><path d="m331 0-45 37.5 45 37.5h22.5c4.142 0 7.5-3.358 7.5-7.5v-60c0-4.142-3.358-7.5-7.5-7.5z" fill="#62676f"/><path d="m136 7.5v60c0 4.142 3.358 7.5 7.5 7.5h187.5v-75h-187.5c-4.142 0-7.5 3.358-7.5 7.5z" fill="#83878c"/></g></svg>